<svg width="8.4783mm" height="9.2903mm" version="1.1" viewBox="0 0 8.4782667 9.2903147">
<g transform="translate(-57.749 95.449)">
<g transform="matrix(.01521 0 0 .01521 69.685 -122.89)" stroke-width="1px">
<g transform="translate(481.17 2081)" fill="#e80088">
<path d="m-948.97 208.55-96.188-55.688 96.188-55.125z" fill="#e80088"/>
</g>
<g transform="translate(264.31 2080.5)" fill="#00dffc">
<path d="m-948.97 208.55-96.188-55.688 96.188-55.125z" fill="#00dffc"/>
</g>
<g transform="translate(263.81 1956)" fill="#e80088">
<path d="m-948.97 208.55-96.188-55.688 96.188-55.125z" fill="#e80088"/>
</g>
<g transform="translate(480.38 1831.2)" fill="#e80088">
<path d="m-948.97 208.55-96.188-55.688 96.188-55.125z" fill="#e80088"/>
</g>
<g transform="translate(372.17 1768.7)" fill="#480048">
<path d="m-948.97 208.55-96.188-55.688 96.188-55.125z" fill="#480048"/>
</g>
<g transform="translate(264.67 1830.8)" fill="#e80088">
<path d="m-948.97 208.55-96.188-55.688 96.188-55.125z" fill="#e80088"/>
</g>
<g transform="translate(371.81 2143)" fill="#480048">
<path d="m-948.97 208.55-96.188-55.688 96.188-55.125z" fill="#480048"/>
</g>
<g transform="matrix(-1 0 0 1 -1625.5 1830.5)" fill="#00dffc">
<path d="m-948.97 208.55-96.188-55.688 96.188-55.125z" fill="#00dffc"/>
</g>
<g transform="matrix(-1 0 0 1 -1733.8 1893.3)" fill="#480048">
<path d="m-948.97 208.55-96.188-55.688 96.188-55.125z" fill="#480048"/>
</g>
<g transform="matrix(-1 0 0 1 -1733.4 2018.3)" fill="#480048">
<path d="m-948.97 208.55-96.188-55.688 96.188-55.125z" fill="#480048"/>
</g>
<g transform="matrix(-1 0 0 1 -1625.5 2080.5)" fill="#e80088">
<path d="m-948.97 208.55-96.188-55.688 96.188-55.125z" fill="#e80088"/>
</g>
<g transform="matrix(-1 0 0 1 -1517.3 2143.7)" fill="#00dffc">
<path d="m-948.97 208.55-96.188-55.688 96.188-55.125z" fill="#00dffc"/>
</g>
<g transform="matrix(-1 0 0 1 -1517.7 1768.3)" fill="#480048">
<path d="m-948.97 208.55-96.188-55.688 96.188-55.125z" fill="#480048"/>
</g>
<g transform="matrix(-1 0 0 1 -1386.8 2206.4)" fill="#480048" fill-opacity=".86667">
<path d="m-948.97 208.55-96.188-55.688 96.188-55.125z" fill="#480048" fill-opacity=".86667"/>
</g>
<g transform="matrix(-1 0 0 1 -1386 2082.4)" fill="#00dffc">
<path d="m-948.97 208.55-96.188-55.688 96.188-55.125z" fill="#00dffc"/>
</g>
<g transform="matrix(-1 0 0 1 -1386 1956.1)" fill="#e80088">
<path d="m-948.97 208.55-96.188-55.688 96.188-55.125z" fill="#e80088"/>
</g>
<g transform="translate(610.64 2144)" fill="#e80088">
<path d="m-948.97 208.55-96.188-55.688 96.188-55.125z" fill="#e80088"/>
</g>
<g transform="translate(611.65 2019.8)" fill="#444">
<path d="m-948.97 208.55-96.188-55.688 96.188-55.125z" fill="#480048" fill-opacity=".86667"/>
</g>
<g transform="translate(612.66 1894.5)" fill="#444">
<path d="m-948.97 208.55-96.188-55.688 96.188-55.125z" fill="#00dffc"/>
</g>
<g transform="matrix(-1 0 0 1 -1386 1832.1)" fill="#480048" fill-opacity=".86667">
<path d="m-948.97 208.55-96.188-55.688 96.188-55.125z" fill="#480048" fill-opacity=".86667"/>
</g>
<g transform="translate(612.66 1770.5)" fill="#444">
<path d="m-948.97 208.55-96.188-55.688 96.188-55.125z" fill="#e80088"/>
</g>
<g transform="matrix(-1 0 0 1 -1277.5 1769.2)" fill="#00dffc">
<path d="m-948.97 208.55-96.188-55.688 96.188-55.125z" fill="#00dffc"/>
</g>
<g transform="translate(721.61 1706.4)" fill="#480048" fill-opacity=".86667">
<path d="m-948.97 208.55-96.188-55.688 96.188-55.125z" fill="#480048" fill-opacity=".86667"/>
</g>
<g transform="matrix(-1 0 0 1 -1278.2 2020.6)" fill="#480048" fill-opacity=".86667">
<path d="m-948.97 208.55-96.188-55.688 96.188-55.125z" fill="#480048" fill-opacity=".86667"/>
</g>
<g transform="translate(720.9 1957.8)" fill="#e80088">
<path d="m-948.97 208.55-96.188-55.688 96.188-55.125z" fill="#e80088"/>
</g>
</g>
</g>
</svg>