<svg xmlns="http://www.w3.org/2000/svg" width="1141" height="316" viewBox="0 0 301.89 83.608"><g stroke-width=".1" stroke="#989898" fill="none" transform="translate(45.49 -74.334)"><rect ry=".879" y="77.835" x="-42.116" height="16.899" width="27.096"/><rect ry=".879" y="97.776" x="-41.999" height="16.899" width="27.096"/><rect ry=".879" y="117.573" x="-41.991" height="16.899" width="27.096"/><rect ry=".879" y="137.514" x="-41.874" height="16.899" width="27.096"/><rect ry=".879" y="77.793" x="17.476" height="16.899" width="17.107"/><rect ry=".879" y="97.734" x="17.55" height="16.899" width="17.107"/><rect ry=".879" y="117.53" x="17.555" height="16.899" width="17.107"/><rect ry=".879" y="137.472" x="17.629" height="16.899" width="17.107"/><rect ry=".879" y="77.934" x="37.502" height="16.899" width="17.107"/><rect ry=".879" y="97.876" x="37.576" height="16.899" width="17.107"/><rect ry=".879" y="117.672" x="37.581" height="16.899" width="17.107"/><rect ry=".879" y="137.614" x="37.655" height="16.899" width="17.107"/><rect width="17.107" height="16.899" x="57.164" y="77.793" ry=".879"/><rect width="17.107" height="16.899" x="57.237" y="97.734" ry=".879"/><rect width="17.107" height="16.899" x="57.243" y="117.53" ry=".879"/><rect width="17.107" height="16.899" x="57.317" y="137.472" ry=".879"/><rect width="17.107" height="16.899" x="77.19" y="77.934" ry=".879"/><rect width="17.107" height="16.899" x="77.263" y="97.876" ry=".879"/><rect width="17.107" height="16.899" x="77.269" y="117.672" ry=".879"/><rect width="17.107" height="16.899" x="77.342" y="137.614" ry=".879"/><rect width="17.107" height="16.899" x="96.851" y="77.793" ry=".879"/><rect width="17.107" height="16.899" x="96.925" y="97.734" ry=".879"/><rect width="17.107" height="16.899" x="96.93" y="117.53" ry=".879"/><rect width="17.107" height="16.899" x="97.004" y="137.472" ry=".879"/><rect width="17.107" height="16.899" x="116.877" y="77.934" ry=".879"/><rect width="17.107" height="16.899" x="116.951" y="97.876" ry=".879"/><rect width="17.107" height="16.899" x="116.956" y="117.672" ry=".879"/><rect width="36.525" height="16.804" x="117.077" y="137.661" ry=".874"/><rect ry=".879" y="77.793" x="136.539" height="16.899" width="17.107"/><rect ry=".879" y="97.734" x="136.613" height="16.899" width="17.107"/><rect ry=".879" y="117.53" x="136.618" height="16.899" width="17.107"/><rect ry=".879" y="77.934" x="156.565" height="16.899" width="17.107"/><rect ry=".879" y="97.876" x="156.638" height="16.899" width="17.107"/><rect ry=".879" y="117.672" x="156.644" height="16.899" width="17.107"/><rect ry=".879" y="137.614" x="156.718" height="16.899" width="17.107"/><rect ry=".879" y="77.793" x="176.226" height="16.899" width="17.107"/><rect ry=".879" y="97.734" x="176.3" height="16.899" width="17.107"/><rect ry=".879" y="117.53" x="176.305" height="16.899" width="17.107"/><rect ry=".879" y="137.472" x="176.379" height="16.899" width="17.107"/><rect ry=".879" y="77.934" x="196.252" height="16.899" width="17.107"/><rect ry=".879" y="97.876" x="196.326" height="16.899" width="17.107"/><rect ry=".879" y="117.672" x="196.331" height="16.899" width="17.107"/><rect ry=".879" y="137.614" x="196.405" height="16.899" width="17.107"/><rect width="17.107" height="16.899" x="215.914" y="77.793" ry=".879"/><rect width="17.107" height="16.899" x="215.987" y="97.734" ry=".879"/><rect width="17.107" height="16.899" x="215.993" y="117.53" ry=".879"/><rect width="17.107" height="16.899" x="216.066" y="137.472" ry=".879"/><rect width="17.107" height="16.899" x="235.94" y="77.934" ry=".879"/><rect width="17.107" height="16.899" x="236.013" y="97.876" ry=".879"/><rect width="17.107" height="16.899" x="236.019" y="117.672" ry=".879"/><rect width="17.107" height="16.899" x="236.092" y="137.614" ry=".879"/></g><path d="M17.198 12.17v59.91M71.702 12.17v59.91M71.702 12.17v59.91M91.281 12.17v59.91M111.39 12.17v59.91M111.39 12.17v59.91M130.969 12.17v59.91M151.077 12.17v59.91M151.077 12.17v59.91" fill="green" stroke="green" stroke-width=".365"/><path d="M170.656 12.17v39.877M190.765 12.17v39.865" fill="green" stroke="green" stroke-width=".298"/><path d="M210.344 12.17v59.91M230.452 12.17v59.91M230.452 12.17v59.91M250.031 12.17v59.91M270.14 12.17v59.91M270.14 12.17v59.91M289.719 12.17v59.91" fill="green" stroke="green" stroke-width=".365"/><path d="M170.656 52.388l10.017 19.418" fill="green" stroke="green" stroke-width=".298"/><path d="M17.198 12.17h272.615M17.009 32.034h272.615M17.198 51.859h272.615M17.009 71.721h272.615" fill="none" stroke="#a04400" stroke-width=".465"/><g stroke="#505050" stroke-width=".265" transform="translate(45.49 -74.334)"><circle r=".752" cy="86.715" cx="-28.351" fill="#787878"/><circle r=".752" cy="106.426" cx="-28.317" fill="#787878"/><circle cx="-28.351" cy="126.403" r=".752" fill="#787878"/><circle cx="-28.317" cy="146.114" r=".752" fill="#787878"/><circle cx="26.153" cy="86.715" r=".752" fill="#787878"/><circle cx="26.187" cy="106.426" r=".752" fill="#787878"/><circle r=".752" cy="126.403" cx="26.153" fill="#787878"/><circle r=".752" cy="146.114" cx="26.187" fill="#787878"/><circle r=".752" cy="86.715" cx="45.733" fill="#787878"/><circle r=".752" cy="106.426" cx="45.766" fill="#787878"/><circle cx="45.733" cy="126.403" r=".752" fill="#787878"/><circle cx="45.766" cy="146.114" r=".752" fill="#787878"/><circle r=".752" cy="86.715" cx="65.841" fill="#787878"/><circle r=".752" cy="106.426" cx="65.874" fill="#787878"/><circle cx="65.841" cy="126.403" r=".752" fill="#787878"/><circle cx="65.874" cy="146.114" r=".752" fill="#787878"/><circle cx="85.42" cy="86.715" r=".752" fill="#787878"/><circle cx="85.454" cy="106.426" r=".752" fill="#787878"/><circle r=".752" cy="126.403" cx="85.42" fill="#787878"/><circle r=".752" cy="146.114" cx="85.454" fill="#787878"/><circle r=".752" cy="86.715" cx="105.528" fill="#787878"/><circle r=".752" cy="106.426" cx="105.562" fill="#787878"/><circle cx="105.528" cy="126.403" r=".752" fill="#787878"/><circle cx="105.562" cy="146.114" r=".752" fill="#787878"/><circle cx="125.108" cy="86.715" r=".752" fill="#787878"/><circle cx="125.141" cy="106.426" r=".752" fill="#787878"/><circle cx="145.216" cy="86.715" r=".752" fill="#787878"/><circle cx="145.249" cy="106.426" r=".752" fill="#787878"/><circle r=".752" cy="126.403" cx="145.216" fill="#787878"/><circle r=".752" cy="86.715" cx="164.795" fill="#787878"/><circle r=".752" cy="106.426" cx="164.829" fill="#787878"/><circle cx="164.795" cy="126.403" r=".752" fill="#787878"/><circle cx="164.829" cy="146.114" r=".752" fill="#787878"/><circle cx="184.903" cy="86.715" r=".752" fill="#787878"/><circle cx="184.937" cy="106.426" r=".752" fill="#787878"/><circle r=".752" cy="126.403" cx="184.903" fill="#787878"/><circle r=".752" cy="146.114" cx="184.937" fill="#787878"/><circle r=".752" cy="86.715" cx="204.483" fill="#787878"/><circle r=".752" cy="106.426" cx="204.516" fill="#787878"/><circle cx="204.483" cy="126.403" r=".752" fill="#787878"/><circle cx="204.516" cy="146.114" r=".752" fill="#787878"/><circle r=".752" cy="86.715" cx="224.591" fill="#787878"/><circle r=".752" cy="106.426" cx="224.624" fill="#787878"/><circle cx="224.591" cy="126.403" r=".752" fill="#787878"/><circle cx="224.624" cy="146.114" r=".752" fill="#787878"/><circle cx="244.17" cy="86.715" r=".752" fill="#787878"/><circle cx="244.204" cy="106.426" r=".752" fill="#787878"/><circle r=".752" cy="126.403" cx="244.17" fill="#787878"/><circle r=".752" cy="146.114" cx="244.204" fill="#787878"/><circle r=".752" cy="126.403" cx="125.108" fill="#787878"/><circle r=".752" cy="146.114" cx="135.195" fill="#757575"/></g></svg>