<svg xmlns="http://www.w3.org/2000/svg" width="1065.944" height="432.119" viewBox="0 0 282.031 114.331"><g stroke-width=".1" fill="none" stroke="#989898" transform="translate(95.847 -56.861)"><rect transform="matrix(.98742 .15814 -.16421 .98642 0 0)" ry=".822" y="59.372" x="-11.221" height="15.805" width="16.263"/><rect width="16.263" height="15.805" x="-11.225" y="78.685" ry=".822" transform="matrix(.98742 .15814 -.16421 .98642 0 0)"/><rect transform="matrix(.98742 .15814 -.16421 .98642 0 0)" ry=".822" y="97.997" x="-11.228" height="15.805" width="16.263"/><rect transform="matrix(.98742 .15814 -.16421 .98642 0 0)" ry=".822" y="117.31" x="-11.232" height="15.805" width="16.263"/><rect width="16.263" height="15.805" x="-11.236" y="136.623" ry=".822" transform="matrix(.98742 .15814 -.16421 .98642 0 0)"/><rect width="16.263" height="15.805" x="-31.057" y="65.771" ry=".822" transform="matrix(.98742 .15814 -.16421 .98642 0 0)"/><rect transform="matrix(.98742 .15814 -.16421 .98642 0 0)" ry=".822" y="85.084" x="-31.061" height="15.805" width="16.263"/><rect width="16.263" height="15.805" x="-31.065" y="104.396" ry=".822" transform="matrix(.98742 .15814 -.16421 .98642 0 0)"/><rect width="16.263" height="15.805" x="-31.068" y="123.709" ry=".822" transform="matrix(.98742 .15814 -.16421 .98642 0 0)"/><rect transform="matrix(.98742 .15814 -.16421 .98642 0 0)" ry=".822" y="143.021" x="-31.072" height="15.805" width="16.263"/><rect transform="matrix(.98742 .15814 -.16421 .98642 0 0)" ry=".822" y="70.519" x="-50.632" height="15.805" width="16.263"/><rect width="16.263" height="15.805" x="-50.636" y="89.831" ry=".822" transform="matrix(.98742 .15814 -.16421 .98642 0 0)"/><rect transform="matrix(.98742 .15814 -.16421 .98642 0 0)" ry=".822" y="109.144" x="-50.64" height="15.805" width="16.263"/><rect transform="matrix(.98742 .15814 -.16421 .98642 0 0)" ry=".822" y="128.456" x="-50.643" height="15.805" width="16.263"/><rect width="16.263" height="15.805" x="-50.647" y="147.769" ry=".822" transform="matrix(.98742 .15814 -.16421 .98642 0 0)"/><rect width="16.263" height="15.805" x="-70.033" y="69.874" ry=".822" transform="matrix(.98742 .15814 -.16421 .98642 0 0)"/><rect transform="matrix(.98742 .15814 -.16421 .98642 0 0)" ry=".822" y="89.186" x="-70.036" height="15.805" width="16.263"/><rect width="16.263" height="15.805" x="-70.04" y="108.499" ry=".822" transform="matrix(.98742 .15814 -.16421 .98642 0 0)"/><rect width="16.263" height="15.805" x="-70.043" y="127.811" ry=".822" transform="matrix(.98742 .15814 -.16421 .98642 0 0)"/><rect transform="matrix(.98742 .15814 -.16421 .98642 0 0)" ry=".822" y="147.123" x="-70.047" height="15.805" width="16.263"/><rect transform="matrix(.98742 .15814 -.16421 .98642 0 0)" ry=".822" y="65.932" x="8.091" height="15.805" width="16.263"/><rect width="16.263" height="15.805" x="8.087" y="85.245" ry=".822" transform="matrix(.98742 .15814 -.16421 .98642 0 0)"/><rect transform="matrix(.98742 .15814 -.16421 .98642 0 0)" ry=".822" y="104.557" x="8.084" height="15.805" width="16.263"/><rect transform="matrix(.98742 .15814 -.16421 .98642 0 0)" ry=".822" y="123.87" x="8.08" height="15.805" width="16.263"/><rect width="16.263" height="15.805" x="8.076" y="143.183" ry=".822" transform="matrix(.98742 .15814 -.16421 .98642 0 0)"/><rect width="16.263" height="15.805" x="27.055" y="73.621" ry=".822" transform="matrix(.98742 .15814 -.16421 .98642 0 0)"/><rect transform="matrix(.98742 .15814 -.16421 .98642 0 0)" ry=".822" y="92.933" x="27.051" height="15.805" width="16.263"/><rect width="16.263" height="15.805" x="27.047" y="112.246" ry=".822" transform="matrix(.98742 .15814 -.16421 .98642 0 0)"/><rect width="16.263" height="15.805" x="27.044" y="131.558" ry=".822" transform="matrix(.98742 .15814 -.16421 .98642 0 0)"/><rect transform="matrix(.98742 .15814 -.16421 .98642 0 0)" ry=".822" y="150.872" x="27.04" height="15.805" width="16.263"/><rect width="16.263" height="15.805" x="-11.221" y="59.372" ry=".822" transform="matrix(.98742 .15814 -.16421 .98642 0 0)"/><rect transform="matrix(.98742 .15814 -.16421 .98642 0 0)" ry=".822" y="78.685" x="-11.225" height="15.805" width="16.263"/><rect width="16.263" height="15.805" x="-11.228" y="97.997" ry=".822" transform="matrix(.98742 .15814 -.16421 .98642 0 0)"/><rect width="16.263" height="15.805" x="-11.232" y="117.31" ry=".822" transform="matrix(.98742 .15814 -.16421 .98642 0 0)"/><rect transform="matrix(.98742 .15814 -.16421 .98642 0 0)" ry=".822" y="136.623" x="-11.236" height="15.805" width="16.263"/><rect transform="matrix(.98742 .15814 -.16421 .98642 0 0)" ry=".822" y="65.771" x="-31.057" height="15.805" width="16.263"/><rect width="16.263" height="15.805" x="-31.061" y="85.084" ry=".822" transform="matrix(.98742 .15814 -.16421 .98642 0 0)"/><rect transform="matrix(.98742 .15814 -.16421 .98642 0 0)" ry=".822" y="104.396" x="-31.065" height="15.805" width="16.263"/><rect transform="matrix(.98742 .15814 -.16421 .98642 0 0)" ry=".822" y="123.709" x="-31.068" height="15.805" width="16.263"/><rect width="16.263" height="15.805" x="-31.072" y="143.021" ry=".822" transform="matrix(.98742 .15814 -.16421 .98642 0 0)"/><rect width="16.263" height="15.805" x="-50.632" y="70.519" ry=".822" transform="matrix(.98742 .15814 -.16421 .98642 0 0)"/><rect transform="matrix(.98742 .15814 -.16421 .98642 0 0)" ry=".822" y="89.831" x="-50.636" height="15.805" width="16.263"/><rect width="16.263" height="15.805" x="-50.64" y="109.144" ry=".822" transform="matrix(.98742 .15814 -.16421 .98642 0 0)"/><rect width="16.263" height="15.805" x="-50.643" y="128.456" ry=".822" transform="matrix(.98742 .15814 -.16421 .98642 0 0)"/><rect transform="matrix(.98742 .15814 -.16421 .98642 0 0)" ry=".822" y="147.769" x="-50.647" height="15.805" width="16.263"/><rect transform="matrix(.98742 .15814 -.16421 .98642 0 0)" ry=".822" y="69.874" x="-70.033" height="15.805" width="16.263"/><rect width="16.263" height="15.805" x="-70.036" y="89.186" ry=".822" transform="matrix(.98742 .15814 -.16421 .98642 0 0)"/><rect transform="matrix(.98742 .15814 -.16421 .98642 0 0)" ry=".822" y="108.499" x="-70.04" height="15.805" width="16.263"/><rect transform="matrix(.98742 .15814 -.16421 .98642 0 0)" ry=".822" y="127.811" x="-70.043" height="15.805" width="16.263"/><rect width="16.263" height="15.805" x="-70.047" y="147.123" ry=".822" transform="matrix(.98742 .15814 -.16421 .98642 0 0)"/><rect width="16.263" height="15.805" x="8.091" y="65.932" ry=".822" transform="matrix(.98742 .15814 -.16421 .98642 0 0)"/><rect transform="matrix(.98742 .15814 -.16421 .98642 0 0)" ry=".822" y="85.245" x="8.087" height="15.805" width="16.263"/><rect width="16.263" height="15.805" x="8.084" y="104.557" ry=".822" transform="matrix(.98742 .15814 -.16421 .98642 0 0)"/><rect width="16.263" height="15.805" x="8.08" y="123.87" ry=".822" transform="matrix(.98742 .15814 -.16421 .98642 0 0)"/><rect transform="matrix(.98742 .15814 -.16421 .98642 0 0)" ry=".822" y="143.183" x="8.076" height="15.805" width="16.263"/><rect transform="matrix(.98742 .15814 -.16421 .98642 0 0)" ry=".822" y="73.621" x="27.055" height="15.805" width="16.263"/><rect width="16.263" height="15.805" x="27.051" y="92.933" ry=".822" transform="matrix(.98742 .15814 -.16421 .98642 0 0)"/><rect transform="matrix(.98742 .15814 -.16421 .98642 0 0)" ry=".822" y="112.246" x="27.047" height="15.805" width="16.263"/><rect transform="matrix(.98742 .15814 -.16421 .98642 0 0)" ry=".822" y="131.558" x="27.044" height="15.805" width="16.263"/><rect width="16.263" height="15.805" x="27.04" y="150.872" ry=".822" transform="matrix(.98742 .15814 -.16421 .98642 0 0)"/><rect transform="matrix(-.98742 .15814 .16421 .98642 0 0)" ry=".822" y="73.658" x="-100.333" height="15.805" width="16.263"/><rect width="16.263" height="15.805" x="-100.337" y="92.971" ry=".822" transform="matrix(-.98742 .15814 .16421 .98642 0 0)"/><rect transform="matrix(-.98742 .15814 .16421 .98642 0 0)" ry=".822" y="112.284" x="-100.341" height="15.805" width="16.263"/><rect transform="matrix(-.98742 .15814 .16421 .98642 0 0)" ry=".822" y="131.596" x="-100.344" height="15.805" width="16.263"/><rect width="16.263" height="15.805" x="-100.348" y="150.909" ry=".822" transform="matrix(-.98742 .15814 .16421 .98642 0 0)"/><rect width="16.263" height="15.805" x="-120.17" y="80.057" ry=".822" transform="matrix(-.98742 .15814 .16421 .98642 0 0)"/><rect transform="matrix(-.98742 .15814 .16421 .98642 0 0)" ry=".822" y="99.37" x="-120.173" height="15.805" width="16.263"/><rect width="16.263" height="15.805" x="-120.177" y="118.683" ry=".822" transform="matrix(-.98742 .15814 .16421 .98642 0 0)"/><rect width="16.263" height="15.805" x="-120.181" y="137.995" ry=".822" transform="matrix(-.98742 .15814 .16421 .98642 0 0)"/><rect transform="matrix(-.98742 .15814 .16421 .98642 0 0)" ry=".822" y="157.307" x="-120.184" height="15.805" width="16.263"/><rect transform="matrix(-.98742 .15814 .16421 .98642 0 0)" ry=".822" y="84.805" x="-139.745" height="15.805" width="16.263"/><rect width="16.263" height="15.805" x="-139.748" y="104.118" ry=".822" transform="matrix(-.98742 .15814 .16421 .98642 0 0)"/><rect transform="matrix(-.98742 .15814 .16421 .98642 0 0)" ry=".822" y="123.43" x="-139.752" height="15.805" width="16.263"/><rect transform="matrix(-.98742 .15814 .16421 .98642 0 0)" ry=".822" y="142.743" x="-139.756" height="15.805" width="16.263"/><rect width="16.263" height="15.805" x="-139.759" y="162.055" ry=".822" transform="matrix(-.98742 .15814 .16421 .98642 0 0)"/><rect width="16.263" height="15.805" x="-159.145" y="84.16" ry=".822" transform="matrix(-.98742 .15814 .16421 .98642 0 0)"/><rect transform="matrix(-.98742 .15814 .16421 .98642 0 0)" ry=".822" y="103.473" x="-159.148" height="15.805" width="16.263"/><rect width="16.263" height="15.805" x="-159.152" y="122.785" ry=".822" transform="matrix(-.98742 .15814 .16421 .98642 0 0)"/><rect width="16.263" height="15.805" x="-159.156" y="142.098" ry=".822" transform="matrix(-.98742 .15814 .16421 .98642 0 0)"/><rect transform="matrix(-.98742 .15814 .16421 .98642 0 0)" ry=".822" y="161.41" x="-159.159" height="15.805" width="16.263"/><rect transform="matrix(-.98742 .15814 .16421 .98642 0 0)" ry=".822" y="80.218" x="-81.021" height="15.805" width="16.263"/><rect width="16.263" height="15.805" x="-81.025" y="99.531" ry=".822" transform="matrix(-.98742 .15814 .16421 .98642 0 0)"/><rect transform="matrix(-.98742 .15814 .16421 .98642 0 0)" ry=".822" y="118.844" x="-81.029" height="15.805" width="16.263"/><rect transform="matrix(-.98742 .15814 .16421 .98642 0 0)" ry=".822" y="138.156" x="-81.032" height="15.805" width="16.263"/><rect width="16.263" height="15.805" x="-81.036" y="157.469" ry=".822" transform="matrix(-.98742 .15814 .16421 .98642 0 0)"/><rect width="16.263" height="15.805" x="-62.058" y="87.907" ry=".822" transform="matrix(-.98742 .15814 .16421 .98642 0 0)"/><rect transform="matrix(-.98742 .15814 .16421 .98642 0 0)" ry=".822" y="107.22" x="-62.061" height="15.805" width="16.263"/><rect width="16.263" height="15.805" x="-62.065" y="126.532" ry=".822" transform="matrix(-.98742 .15814 .16421 .98642 0 0)"/><rect width="16.263" height="15.805" x="-62.069" y="145.845" ry=".822" transform="matrix(-.98742 .15814 .16421 .98642 0 0)"/><rect transform="matrix(-.98742 .15814 .16421 .98642 0 0)" ry=".822" y="165.158" x="-62.072" height="15.805" width="16.263"/><rect width="16.263" height="15.805" x="45.92" y="141.944" ry=".822" transform="matrix(.98742 .15814 -.16421 .98642 0 0)"/><rect width="16.263" height="15.805" x="-43.192" y="156.23" ry=".822" transform="matrix(-.98742 .15814 .16421 .98642 0 0)"/></g><path d="M124.743 99.56l-20.732 5.755" fill="green" stroke="green" stroke-width=".365"/><g stroke="#a04400" stroke-width=".2" fill="none"><path d="M21.981 10.405l19.438 3.118M41.419 13.523l19.579-1.058 20.467-3.147L99.513 19.43l18.049 10.064"/></g><g fill="green" stroke="green" stroke-width=".365"><path d="M21.84 10.878L8.231 87.323M41.419 13.523L27.81 89.97M60.998 12.465L47.39 88.911M81.635 8.76L68.028 85.208M99.627 18.815L86.02 95.261M117.619 28.87l-13.608 76.445"/><g><path d="M260.645 10.878l13.607 76.445M241.066 13.523l13.607 76.446M221.486 12.465l13.608 76.446M200.849 8.76l13.607 76.447M182.857 18.815l13.607 76.446M164.866 28.87l13.607 76.445"/></g></g><path d="M157.457 99.56l20.732 5.755" fill="green" stroke="green" stroke-width=".365"/><g stroke-width=".2" stroke="#a04400" fill="none"><path d="M18.506 29.455l19.438 3.118M37.944 32.573l19.579-1.058 20.467-3.147L96.038 38.48l18.049 10.064M15.86 49.034l19.438 3.119M35.298 52.153l19.579-1.059 20.467-3.146 18.049 10.11 18.048 10.064M12.156 68.084l19.438 3.119M31.594 71.203l19.579-1.059 20.467-3.146 18.048 10.11 18.049 10.064M8.452 86.605l19.437 3.118M27.89 89.723l19.579-1.058 20.467-3.147L85.984 95.63l18.049 10.064"/><g><path d="M260.71 10.405l-19.438 3.118M241.272 13.523l-19.58-1.058-20.467-3.147-18.048 10.111-18.048 10.064M263.884 29.455l-19.437 3.118M244.447 32.573l-19.58-1.058-20.467-3.147-18.048 10.111-18.048 10.064M266.53 49.034l-19.437 3.119M247.093 52.153l-19.58-1.059-20.467-3.146-18.048 10.11-18.048 10.064"/><g><path d="M270.234 68.084l-19.437 3.119M250.797 71.203l-19.58-1.059-20.467-3.146-18.048 10.11-18.048 10.064"/></g><g><path d="M273.939 86.605L254.5 89.723M254.501 89.723l-19.579-1.058-20.467-3.147-18.049 10.111-18.048 10.064"/></g></g><path d="M104.033 105.693h74.466M107.737 87.172h67.325M111.441 68.122h60.28M114.087 48.543h54.16M117.262 29.493h47.51M124.743 99.56h32.714"/></g><g fill="#787878" stroke="#505050" stroke-width=".265"><g transform="translate(181.317 43.444)"><g transform="translate(-85.47 -100.305)"><circle r=".752" cy="143.617" cx="-87.331"/><circle r=".752" cy="124.718" cx="-83.93"/><circle r=".752" cy="105.631" cx="-80.717"/><circle r=".752" cy="86.259" cx="-77.032"/><circle r=".752" cy="67.361" cx="-73.819"/></g><g transform="translate(-66.42 -97.13)"><circle cx="-87.331" cy="143.617" r=".752"/><circle cx="-83.93" cy="124.718" r=".752"/><circle cx="-80.717" cy="105.631" r=".752"/><circle cx="-77.032" cy="86.259" r=".752"/><circle cx="-73.819" cy="67.361" r=".752"/></g><g transform="translate(-46.312 -98.189)"><circle r=".752" cy="143.617" cx="-87.331"/><circle r=".752" cy="124.718" cx="-83.93"/><circle r=".752" cy="105.631" cx="-80.717"/><circle r=".752" cy="86.259" cx="-77.032"/><circle r=".752" cy="67.361" cx="-73.819"/></g><g transform="translate(-26.203 -101.364)"><circle cx="-87.331" cy="143.617" r=".752"/><circle cx="-83.93" cy="124.718" r=".752"/><circle cx="-80.717" cy="105.631" r=".752"/><circle cx="-77.032" cy="86.259" r=".752"/><circle cx="-73.819" cy="67.361" r=".752"/></g><g transform="translate(-8.211 -91.31)"><circle r=".752" cy="143.617" cx="-87.331"/><circle r=".752" cy="124.718" cx="-83.93"/><circle r=".752" cy="105.631" cx="-80.717"/><circle r=".752" cy="86.259" cx="-77.032"/><circle r=".752" cy="67.361" cx="-73.819"/></g><g transform="translate(9.78 -81.255)"><circle cx="-87.331" cy="143.617" r=".752"/><circle cx="-83.93" cy="124.718" r=".752"/><circle cx="-80.717" cy="105.631" r=".752"/><circle cx="-77.032" cy="86.259" r=".752"/><circle cx="-73.819" cy="67.361" r=".752"/></g><circle cx="-56.337" cy="56.305" r=".752"/></g><g transform="matrix(-1 0 0 1 100.874 43.444)"><g transform="translate(-85.47 -100.305)"><circle cx="-87.331" cy="143.617" r=".752"/><circle cx="-83.93" cy="124.718" r=".752"/><circle cx="-80.717" cy="105.631" r=".752"/><circle cx="-77.032" cy="86.259" r=".752"/><circle cx="-73.819" cy="67.361" r=".752"/></g><g transform="translate(-66.42 -97.13)"><circle r=".752" cy="143.617" cx="-87.331"/><circle r=".752" cy="124.718" cx="-83.93"/><circle r=".752" cy="105.631" cx="-80.717"/><circle r=".752" cy="86.259" cx="-77.032"/><circle r=".752" cy="67.361" cx="-73.819"/></g><g transform="translate(-46.312 -98.189)"><circle cx="-87.331" cy="143.617" r=".752"/><circle cx="-83.93" cy="124.718" r=".752"/><circle cx="-80.717" cy="105.631" r=".752"/><circle cx="-77.032" cy="86.259" r=".752"/><circle cx="-73.819" cy="67.361" r=".752"/></g><g transform="translate(-26.203 -101.364)"><circle r=".752" cy="143.617" cx="-87.331"/><circle r=".752" cy="124.718" cx="-83.93"/><circle r=".752" cy="105.631" cx="-80.717"/><circle r=".752" cy="86.259" cx="-77.032"/><circle r=".752" cy="67.361" cx="-73.819"/></g><g transform="translate(-8.211 -91.31)"><circle cx="-87.331" cy="143.617" r=".752"/><circle cx="-83.93" cy="124.718" r=".752"/><circle cx="-80.717" cy="105.631" r=".752"/><circle cx="-77.032" cy="86.259" r=".752"/><circle cx="-73.819" cy="67.361" r=".752"/></g><g transform="translate(9.78 -81.255)"><circle r=".752" cy="143.617" cx="-87.331"/><circle r=".752" cy="124.718" cx="-83.93"/><circle r=".752" cy="105.631" cx="-80.717"/><circle r=".752" cy="86.259" cx="-77.032"/><circle r=".752" cy="67.361" cx="-73.819"/></g><circle r=".752" cy="56.305" cx="-56.337"/></g></g></svg>